/* XPM */
static char *f6dcfcde6d414fd8f72135ce5c06fd44vfSO1JuGK0J9c0ov[] = {
/* columns rows colors chars-per-pixel */
"32 32 13 1 ",
"  c None",
". c black",
"X c #CC9900",
"o c #663200",
"O c #986500",
"+ c #320000",
"@ c #100000",
"# c #FDCB00",
"$ c #FFFE65",
"% c white",
"& c #FFFECB",
"* c #FFFE99",
"= c #FFCC33",
/* pixels */
"               ..               ",
"              .$$.              ",
"             .%%+#.             ",
"             .%+oO.             ",
"            .o$+ooo.            ",
"            .X*+@oX.            ",
"            .X*+@oX.            ",
"            .#X+@X#.            ",
"           .X&&=X##X.           ",
"           .O%&oOX#X.           ",
"           .O%&+@o#X.           ",
"           .O%$+@o#X.           ",
"           .O%$+@o#X.           ",
"           .O%$+@o#X.           ",
"           .O%$+@o#X.           ",
"           .O%$+@o#X.           ",
"           .O%$+@o#X.           ",
"           .O%$+@o#X.           ",
"           .O%$+@o#X.           ",
"           .O&$+@o#X.           ",
"           .O&$+@o#X.           ",
"           .O&$+@o#X.           ",
"           .O&$+@o#X.           ",
"           .O&$+@o#X.           ",
"           .O&$+@oXX.           ",
"           .O&$+@oXO.           ",
"           .O&$+@oXO.           ",
"           .OOO+@oXO.           ",
"           .oo+++++o.           ",
"            @Oo%OoO@            ",
"           .O*#%oX*O.           ",
"            ........            "
};
