/* XPM */
static char *_948f9074093475ba6a2dbe0a1cd971eciiCPzLcc2H7MgFS[] = {
/* columns rows colors chars-per-pixel */
"64 92 36 1 ",
"  c None",
". c #000008",
"X c gray6",
"o c #151515",
"O c gray12",
"+ c #2A2A2A",
"@ c gray18",
"# c gray20",
"$ c #353535",
"% c gray23",
"& c #3F3F3F",
"* c #5F1F17",
"= c #6F2B1F",
"- c #7B3323",
"; c #753828",
": c #434343",
"> c #484848",
", c gray29",
"< c #535353",
"1 c #555555",
"2 c #656565",
"3 c #8B3F2B",
"4 c #974B33",
"5 c #A7573B",
"6 c #F37700",
"7 c #B76743",
"8 c #C3734B",
"9 c #F39F27",
"0 c #D38353",
"q c #DF8F5B",
"w c #EFA367",
"e c #FFB373",
"r c #F7C34F",
"t c #F7DF7B",
"y c #FFC787",
"u c #FBEF97",
/* pixels */
"                                                                ",
"                                                                ",
"                                                                ",
"                                                                ",
"                                                                ",
"                                                                ",
"                                                                ",
"                                                                ",
"                                                                ",
"                                                                ",
"                              6 66 6                            ",
"                           96696666666                          ",
"                         6699999r999696                         ",
"                       6 999rr9rr9999966                        ",
"                       6699rrrrrrr9r99666                       ",
"                      6699rrrrrtrtrr99996                       ",
"                     669999rrrtttutrrr96666                     ",
"                     69669rrtttuuuttrr9996                      ",
"                     6699rrrttuuuuutttr996                      ",
"                     6699rtttuuuuuuttrr996                      ",
"                    6696rrrtuu%11%uuttrr966                     ",
"                    66699rrttu@%%@uuttrr9966                    ",
"                     66999rtt.o@@o.ttr999666                    ",
"                     666999r.o@@@@o.rr99966                     ",
"                      66669X#:,11,:#.96966                      ",
"                      66669X#<1221<#.9666                       ",
"                        66Xo#<1221<#o.666                       ",
"                        66X@%%,,,,%%@X66                        ",
"                         XX@%@&&&&@%@XX                         ",
"                         XX@OO@@@@O@@XX                         ",
"                         XoOO@@@@@OOOXX                         ",
"                         XoO@@%%%%@@OXX                         ",
"                         XoO@%,,,,%@@oX                         ",
"                        XXO@@%,11,%@@oXX                        ",
"                        XXO@@%%11%%@@oXX                        ",
"                        ooO@@%%11%%@OOoX                        ",
"                       XOOO@@@%,,%@@OOOOX                       ",
"                       XOO@@@@%%%%@@OOOOX                       ",
"                      XXOO@@@@@%%@@@@@OOXX                      ",
"                      XXO@@@@@@@@@@@@@@OXX                      ",
"                      XXO@@@@OOOOOO@@@@OXX                      ",
"                      XXO@@@OOOOOOOO@@@OXX                      ",
"                      XXOO@@OOOOOOOO@@OOXX                      ",
"                     XXXoO@%OO@@@@OO%@OoXXX                     ",
"                     XXXoO@,O@%%%%@O,@OoXXX                     ",
"                     XXooO@,O@,,,,@O,@OoXXX                     ",
"                     XXoOO+&O+,,,,+O&+OOXXX*=                   ",
"                     XXoOO+$O+&&&&+O$+OOXXX*=33                 ",
"                     XXoOO+OO+$$$$+OO+OOXXX=-343                ",
"                     XXoOOOOOO++++OOOOOOXXX-35543               ",
"                     XXoOOOOOOOOOOOOOOOOXXX357754               ",
"                     XXoOOOOOOOOOOOOOOOOXXX478875               ",
"                     XXoOOOOOOOOOOOOOOOOXXX4800874              ",
"                     XXooOOOOOOOOOOOOOOoXX3700qq75              ",
"                   =*XXXooOOOOOOOOOOOooXXX480qqq074             ",
"                 ---=XXXXoooOOOOOOoooooXX370qqqqq75             ",
"                -343-XXXXooooooooooooXXXX40qqwwqq084            ",
"               -34543XXXXXXoooooooooXXXX370qweewwwq5            ",
"              -3457543XXXXXXXoooooXXXX;770qweeeeeew84           ",
"              -45788743XXXXXXXXXXXXX4770qqweeeeyeee85           ",
"             -4578000743--XXXXXXXXX4700qwweeeeyyyee08           ",
"            -35780qqqq008743--XXX4770qqweeeeeeyyyeeq8           ",
"            -4570qqqqwqqqqq0743-4780qwweeeeeeyyyyeeq8           ",
"            -4570qqqwwwwwwqq0877800qweeeeeeeyyyyyeeq8           ",
"            -4578qqwwwwwwwwwq088000qweeeeeeyyyyyyyeq8           ",
"            -34770qwwwwweeewwq0000qqweeeyyyyyyyyyyeq8           ",
"             -4578qqwwweeeeewwqq00qweeeeeyyyyyyyyye08           ",
"             -45770qwwweeeeeewwwq0qweeeeeeyyyyyyyye0            ",
"             -345770qwwweeeeeewwqqweeeeeeeeyyyyyyee0            ",
"              -34577qqwwweeeeeewwqweeeeeeeeyyyyyyee0            ",
"               -34570qqwwweeeeeewweeeeeeeeeeyyyyyee0            ",
"               -33457qqqwwweeeeeeeeeeeeeeeeeeyyyyee0            ",
"                -33450qqqwwweeeeeeeeeeeeeeeeeyyyyee0            ",
"               -----470qqqwwweeeeeeeeeeeeeeeeyyyyee0            ",
"               -4777-470qqqwwweeeeeeeeeeeeeeeyyyeee0            ",
"               -70qq7-470qqqwweeeeeeeeeeeeeeeyyyeew08           ",
"               -7qeeq7-470qqqwweeeeeeeeeeeeeeyyyeewq8           ",
"               -7qeee07-470qqqwweeeeeeeeeeeeeyyeewqq8           ",
"               -7qeeqq07-70qqqwwweeeeeeeeeeeeyyyewq08           ",
"               -7qeeq074-40qqqqwweeeeeeeeeeeeeyyewq08           ",
"               -47qq074---70qqqwwweeeeeeeeeeeeyyew08            ",
"                -47774----700qqqwwweeeeeeeeeeeyyew08            ",
"                 --4------4700qqqwwweeeeeeeeeeeyeeq8            ",
"                 ---77774--7700qqqwwweeeeeeeeeeyyew0            ",
"                 -4qqqqqq4-4770qqqwwwweeeeeeeeeyyewq8           ",
"                 -7qeeeeq7--4700qqqwwwwweeeeeeeeyeww0           ",
"                 -47qeeqq7---7700qqqwwwwweeeeeeeyeewq8          ",
"                  -47qqq7-74-477700qqwwwweeeeeeeeewwq8          ",
"                   -4777-7qq4-477700qqwwwweeeeeeewwww0          ",
"                    ----7qeq7--477700qqwwwwweeeewwwwwq8         ",
"                      -47qqq74--4777000qqwwwwwwwwwwwwq8         ",
"                       -47774----44777700qqwwwwwwwwwwq08        "
};
