/* XPM */
static char *_79bebf5193649b081e9313132ff33cbK13Pgp5pBDeKc1Ow[] = {
/* columns rows colors chars-per-pixel */
"64 92 23 1 ",
"  c None",
". c gray6",
"X c #151515",
"o c gray12",
"O c gray20",
"+ c #5F1F17",
"@ c #6F2B1F",
"# c #7B3323",
"$ c #434343",
"% c #494949",
"& c #535353",
"* c gray39",
"= c #777777",
"- c #8B3F2B",
"; c #974B33",
": c #A7573B",
"> c #B76743",
", c #C3734B",
"< c #D38353",
"1 c #DF8F5B",
"2 c #EFA367",
"3 c #FFB373",
"4 c #FFC787",
/* pixels */
"                                                                ",
"                                                                ",
"                                                                ",
"                                                                ",
"                                                                ",
"                                                                ",
"                                                                ",
"                                                                ",
"                                                                ",
"                                                                ",
"                                                                ",
"                                                                ",
"                                                                ",
"                                                                ",
"                                                                ",
"                                                                ",
"                                                                ",
"                                                                ",
"                                                                ",
"                                                                ",
"                                                                ",
"                                                                ",
"                                                                ",
"                                                                ",
"                                                                ",
"                                                                ",
"                                                                ",
"                                                                ",
"                                                                ",
"                                                                ",
"                                                                ",
"                              $**$                              ",
"                              O$$O                              ",
"                             .OOOO.                             ",
"                           ...*==*...                           ",
"                          ..O&&**&&O..                          ",
"                         ..O$$OOOO$$O..                         ",
"                        ..XOOO$$$$OOOX..                        ",
"                       ..XoOO$$%%$$OOoX..                       ",
"                       ..OOOOooooooOOOO..                       ",
"                      ..oOOOooooooooOOOo..                      ",
"                      .XooOOooooooooOOOoX.                      ",
"                      .XooO$ooOOOOoo$OooX.                      ",
"                      .XooO&oO$$$$Oo&OooX.                      ",
"                     ...XoO&oO&&&&Oo&OoXX..                     ",
"                     ...XoO&oO****Oo&OoX...                     ",
"                     ...XoO$oO&&&&Oo$OoX...                     ",
"                     ..XooOooO$$$$OooOoo...+@                   ",
"                     ..XooooooOOOOoooooo...+@--                 ",
"                     ..XooooooooooooooooX..@#-;-                ",
"                     ..XooooooooooooooooX..#-::;-               ",
"                     ..XooooooooooooooooX..-:>>:;               ",
"                     ..XXXoooooooooooXXXX..;>,,>:               ",
"                     ...XXXoooooooXXXXXXX..;,<<,>;              ",
"                     ...XXXXXXXXXXXXXXXX..-><<11>:              ",
"                   @+.....XXXXXXXXXXXX....;,<111<>;             ",
"                 ###@........XXXXXX......-><11111>:             ",
"               #-;:;-...................-><12332221:            ",
"              #-;:>:;-................->><123333332,;           ",
"              #;:>,,>;-.............;>><11233334333,:           ",
"             #;:>,<<<>;-##.........;><<122333344433<,           ",
"            #-:>,<1111<<,>;-##...;>><112333333444331,           ",
"            #;:><1111211111<>;-#;>,<1223333334444331,           ",
"            #;:><11122222211<,>>,<<12333333344444331,           ",
"            #-;:>,11222333332211<<12333334444444443<,           ",
"             #;:>><12223333332221<12333333444444443<            ",
"             #-;:>><1222333333221123333333344444433<            ",
"              #-;:>>1122233333322123333333344444433<            ",
"               #-;:><112223333332233333333334444433<            ",
"               #--;:>111222333333333333333333444433<            ",
"                #--;:<11122233333333333333333444433<            ",
"               #####;><1112223333333333333333444433<            ",
"               #;>>>#;><111222333333333333333444333<            ",
"               #><11>#;><11122333333333333333444332<,           ",
"               #>1331>#;><11122333333333333334443321,           ",
"               #>1333<>#;><1112233333333333334433211,           ",
"               #>13311<>#><111222333333333333444321<,           ",
"               #>1331<>;#;<111122333333333333344321<,           ",
"               #;>11<>;###><1112223333333333334432<,            ",
"                #;>>>;####><<111222333333333334432<,            ",
"                 ##;######;><<111222333333333334331,            ",
"                 ###>>>>;##>><<11122233333333334432<            ",
"                 #;111111;#;>><111222233333333344321,           ",
"                 #>133331>##;><<11122222333333334322<           ",
"                 #;>13311>###>><<11122222333333343321,          ",
"                  #;>111>#>;#;>>><<112222333333333221,          ",
"                   #;>>>#>11;#;>>><<11222233333332222<          ",
"                    ####>131>##;>>><<11222223333222221,         ",
"                      #;>111>;##;>>><<<112222222222221,         ",
"                       #;>>>;####;;>>>><<1122222222221<,        ",
"                        #####  ####;;>>><<<11222222211<>        ",
"                               ######;;;>>><<1112222111>        "
};
